<?xml version="1.0" encoding="utf-8"?>
<!-- Generator: Adobe Illustrator 27.5.0, SVG Export Plug-In . SVG Version: 6.00 Build 0)  -->
<svg version="1.1" id="Capa_1" xmlns="http://www.w3.org/2000/svg" xmlns:xlink="http://www.w3.org/1999/xlink" x="0px" y="0px"
	 viewBox="0 0 481.89 425.196" style="enable-background:new 0 0 481.89 425.196;" xml:space="preserve">
<rect x="0" style="fill:#FFFFFF;" width="481.89" height="425.196"/>
<g>
	<ellipse style="fill:#85A0CF;" cx="96.923" cy="354.061" rx="50.618" ry="7.498"/>
	<polygon style="fill:#85A0CF;" points="306.547,360.402 198.02,360.402 206.476,347.717 300.627,347.717 	"/>
	<polygon style="fill:#85A0CF;" points="446.56,360.023 344.534,360.023 352.483,348.098 440.995,348.098 	"/>
	<g>
		<g>
			<g>
				<g>
					<path style="fill:#00B6EA;" d="M392.601,305.895c0,4.629-3.753,8.387-8.388,8.387H120.35c-4.634,0-8.386-3.758-8.386-8.387
						V138.013c0-4.632,3.752-8.389,8.386-8.389h263.863c4.635,0,8.388,3.757,8.388,8.389V305.895z"/>
					<rect x="122.085" y="139.963" style="fill:#5859A7;" width="260.393" height="163.976"/>
					<polygon style="fill:#D1D3D4;" points="122.085,139.963 122.085,303.94 382.478,303.94 					"/>
				</g>
			</g>
		</g>
		<rect x="229.022" y="314.281" style="fill:#2578BD;" width="46.521" height="28.758"/>
		<rect x="216.895" y="343.039" style="fill:#5859A7;" width="70.775" height="11.021"/>
	</g>
	<g>
		<path style="fill:#00B6EA;" d="M434.112,350.176c0,2.145-1.739,3.885-3.885,3.885h-69.362c-2.146,0-3.885-1.74-3.885-3.885
			V224.471c0-2.146,1.739-3.887,3.885-3.887h69.362c2.145,0,3.885,1.74,3.885,3.887V350.176z"/>
		<rect x="356.871" y="230.25" style="fill:#5859A7;" width="77.351" height="114.531"/>
		<polygon style="fill:#D1D3D4;" points="356.871,230.25 356.871,344.781 434.222,344.781 		"/>
		<g>
			
				<line style="fill:none;stroke:#5859A7;stroke-width:2;stroke-miterlimit:10;" x1="386.904" y1="225.604" x2="399.832" y2="225.604"/>
			
				<line style="fill:none;stroke:#5859A7;stroke-width:2;stroke-miterlimit:10;" x1="401.098" y1="225.604" x2="404.189" y2="225.604"/>
		</g>
		<g>
			<g>
				<g>
					<g>
						<path style="fill:none;stroke:#00B6EA;stroke-width:1.5;stroke-miterlimit:10;" d="M404.727,284.514
							c-0.07-1.08-1.225-1.422-1.225-1.422l-3.581-1.215l-1.516-0.565c-1.164,0.779-2.44,1.068-2.859,1.148
							c-0.419-0.08-1.7-0.369-2.86-1.148l-1.52,0.565l-3.579,1.215c0,0-1.151,0.342-1.22,1.422l-1.131,6.16h10.167h0.284h10.168
							L404.727,284.514z"/>
						<path style="fill:none;stroke:#00B6EA;stroke-width:1.5;stroke-miterlimit:10;" d="M400.992,273.275
							c-0.07,3.695-2.561,6.647-5.57,6.588c-3.007-0.055-5.392-3.096-5.323-6.791c0.069-3.697,2.564-6.643,5.574-6.586
							C398.678,266.541,401.063,269.578,400.992,273.275z"/>
					</g>
					<path style="fill:none;stroke:#00B6EA;stroke-width:1.5;stroke-miterlimit:10;" d="M413.614,279.395
						c0,9.98-8.09,18.068-18.068,18.068c-9.978,0-18.066-8.088-18.066-18.068c0-9.979,8.088-18.068,18.066-18.068
						C405.524,261.326,413.614,269.416,413.614,279.395z"/>
				</g>
			</g>
			<g>
				<rect x="384.013" y="305.047" style="fill:#00B6EA;" width="23.067" height="8.658"/>
				<rect x="384.013" y="309.375" style="fill:#2391C9;" width="23.067" height="4.33"/>
				<g>
					<path style="fill:#FFFFFF;" d="M387.758,307.5h0.484l0.347,2.457l0.413-2.457h0.453l-0.695,3.324h-0.343L387.758,307.5z"/>
					<path style="fill:#FFFFFF;" d="M389.697,307.5h0.418v3.324h-0.418V307.5z"/>
					<path style="fill:#FFFFFF;" d="M390.664,307.5h1.214v0.418h-0.765v0.967h0.66v0.383h-0.66v1.143h0.765v0.414h-1.214V307.5z"/>
					<path style="fill:#FFFFFF;" d="M392.881,310.824h-0.382l-0.589-3.324h0.448l0.348,2.492l0.347-2.492h0.348l0.378,2.457
						l0.313-2.457h0.453l-0.589,3.324h-0.382l-0.347-2.459L392.881,310.824z"/>
					<path style="fill:#FFFFFF;" d="M395.792,307.5h0.378l0.488,2.422l0.414-2.422h0.418l0.308,3.324h-0.449l-0.105-2.287
						l-0.413,2.287h-0.313l-0.448-2.287l-0.105,2.287h-0.449L395.792,307.5z"/>
					<path style="fill:#FFFFFF;" d="M398.904,307.5c0.296,0.002,0.515,0.145,0.655,0.428c0.141,0.283,0.211,0.719,0.211,1.309
						c0,0.484-0.054,0.881-0.163,1.191c-0.108,0.311-0.319,0.467-0.633,0.467c-0.275,0-0.495-0.119-0.657-0.359
						c-0.163-0.238-0.244-0.66-0.244-1.264c0-0.522,0.057-0.947,0.169-1.275s0.333-0.492,0.662-0.492V307.5z M398.904,307.918
						c-0.155,0.002-0.257,0.125-0.306,0.367c-0.048,0.24-0.072,0.535-0.072,0.881c0,0.502,0.039,0.852,0.116,1.051
						c0.078,0.199,0.177,0.299,0.297,0.299c0.138,0,0.236-0.111,0.295-0.336c0.059-0.225,0.088-0.563,0.088-1.014
						c0-0.451-0.035-0.771-0.105-0.961c-0.071-0.19-0.175-0.283-0.313-0.283V307.918z"/>
					<path style="fill:#FFFFFF;" d="M400.219,307.5h0.589c0.296,0.002,0.503,0.07,0.62,0.201c0.117,0.133,0.176,0.355,0.176,0.67
						c0,0.223-0.04,0.408-0.121,0.555c-0.081,0.148-0.189,0.24-0.328,0.275l0.62,1.623h-0.483l-0.625-1.697v1.697h-0.449V307.5z
						 M401.037,308.828c0.056-0.094,0.083-0.234,0.083-0.422c0-0.178-0.022-0.309-0.066-0.395c-0.044-0.086-0.142-0.129-0.294-0.129
						c-0.015,0-0.03,0-0.046,0c-0.016,0-0.031,0-0.046,0.004v1.104C400.858,308.975,400.981,308.922,401.037,308.828z"/>
					<path style="fill:#FFFFFF;" d="M402.053,307.5h1.214v0.418h-0.765v0.967h0.66v0.383h-0.66v1.143h0.765v0.414h-1.214V307.5z"/>
				</g>
			</g>
		</g>
	</g>
	<g>
		<rect x="195.441" y="109.957" style="fill:#BCBEC0;" width="118.693" height="154.029"/>
		<rect x="190.431" y="104.957" style="fill:#CBE9FA;" width="118.695" height="154.029"/>
		<g>
			<g>
				<rect x="201.852" y="135.776" style="fill:#FFFFFF;" width="31.089" height="31.828"/>
				<g>
					<g>
						<path style="fill:#B3D8F3;" d="M226.392,157.507c-0.068-1.061-1.201-1.396-1.201-1.396l-3.507-1.188l-1.486-0.554
							c-1.139,0.765-2.391,1.048-2.801,1.125c-0.411-0.077-1.665-0.36-2.803-1.125l-1.488,0.554l-3.508,1.188
							c0,0-1.128,0.336-1.196,1.396l-1.107,6.033h9.962h0.278h9.964L226.392,157.507z"/>
						<path style="fill:#B3D8F3;" d="M222.734,146.493c-0.069,3.622-2.513,6.513-5.459,6.457c-2.948-0.055-5.282-3.034-5.216-6.657
							c0.067-3.621,2.512-6.507,5.46-6.452C220.466,139.895,222.803,142.872,222.734,146.493z"/>
					</g>
				</g>
			</g>
			<g>
				<path style="fill:#A1D5F3;" d="M297.705,140.309c0,0.667-0.54,1.207-1.206,1.207h-56.433c-0.667,0-1.207-0.54-1.207-1.207l0,0
					c0-0.666,0.54-1.206,1.207-1.206h56.433C297.165,139.103,297.705,139.643,297.705,140.309L297.705,140.309z"/>
				<path style="fill:#A1D5F3;" d="M297.705,147.896c0,0.667-0.54,1.207-1.206,1.207h-56.433c-0.667,0-1.207-0.54-1.207-1.207l0,0
					c0-0.665,0.54-1.206,1.207-1.206h56.433C297.165,146.69,297.705,147.231,297.705,147.896L297.705,147.896z"/>
				<path style="fill:#A1D5F3;" d="M297.705,155.484c0,0.665-0.54,1.207-1.206,1.207h-56.433c-0.667,0-1.207-0.542-1.207-1.207l0,0
					c0-0.666,0.54-1.206,1.207-1.206h56.433C297.165,154.278,297.705,154.818,297.705,155.484L297.705,155.484z"/>
				<path style="fill:#A1D5F3;" d="M297.705,163.071c0,0.666-0.54,1.206-1.206,1.206h-56.433c-0.667,0-1.207-0.54-1.207-1.206l0,0
					c0-0.667,0.54-1.205,1.207-1.205h56.433C297.165,161.866,297.705,162.404,297.705,163.071L297.705,163.071z"/>
			</g>
			<g>
				<path style="fill:#A1D5F3;" d="M297.705,177.931c0,0.668-0.54,1.206-1.206,1.206h-94.044c-0.666,0-1.206-0.538-1.206-1.206l0,0
					c0-0.665,0.54-1.205,1.206-1.205h94.044C297.165,176.726,297.705,177.266,297.705,177.931L297.705,177.931z"/>
				<path style="fill:#A1D5F3;" d="M297.705,185.519c0,0.666-0.54,1.206-1.206,1.206h-94.044c-0.666,0-1.206-0.54-1.206-1.206l0,0
					c0-0.665,0.54-1.206,1.206-1.206h94.044C297.165,184.313,297.705,184.854,297.705,185.519L297.705,185.519z"/>
				<path style="fill:#A1D5F3;" d="M297.705,193.107c0,0.665-0.54,1.206-1.206,1.206h-94.044c-0.666,0-1.206-0.541-1.206-1.206l0,0
					c0-0.667,0.54-1.207,1.206-1.207h94.044C297.165,191.9,297.705,192.44,297.705,193.107L297.705,193.107z"/>
				<path style="fill:#A1D5F3;" d="M297.705,200.693c0,0.666-0.54,1.207-1.206,1.207h-94.044c-0.666,0-1.206-0.541-1.206-1.207l0,0
					c0-0.666,0.54-1.205,1.206-1.205h94.044C297.165,199.488,297.705,200.027,297.705,200.693L297.705,200.693z"/>
			</g>
			<g>
				<path style="fill:#A1D5F3;" d="M297.705,211.183c0,0.666-0.54,1.205-1.206,1.205h-94.044c-0.666,0-1.206-0.539-1.206-1.205l0,0
					c0-0.666,0.54-1.207,1.206-1.207h94.044C297.165,209.976,297.705,210.517,297.705,211.183L297.705,211.183z"/>
				<path style="fill:#A1D5F3;" d="M297.705,218.771c0,0.664-0.54,1.205-1.206,1.205h-94.044c-0.666,0-1.206-0.541-1.206-1.205l0,0
					c0-0.668,0.54-1.207,1.206-1.207h94.044C297.165,217.564,297.705,218.104,297.705,218.771L297.705,218.771z"/>
				<path style="fill:#A1D5F3;" d="M297.705,226.357c0,0.666-0.54,1.207-1.206,1.207h-94.044c-0.666,0-1.206-0.541-1.206-1.207l0,0
					c0-0.666,0.54-1.205,1.206-1.205h94.044C297.165,225.152,297.705,225.691,297.705,226.357L297.705,226.357z"/>
				<path style="fill:#A1D5F3;" d="M297.705,233.943c0,0.668-0.54,1.207-1.206,1.207h-94.044c-0.666,0-1.206-0.539-1.206-1.207l0,0
					c0-0.664,0.54-1.205,1.206-1.205h94.044C297.165,232.738,297.705,233.279,297.705,233.943L297.705,233.943z"/>
			</g>
		</g>
		<path style="fill:#A1D5F3;" d="M279.201,123.086c0,0.666-0.54,1.206-1.206,1.206h-56.433c-0.667,0-1.207-0.54-1.207-1.206l0,0
			c0-0.666,0.54-1.206,1.207-1.206h56.433C278.661,121.879,279.201,122.419,279.201,123.086L279.201,123.086z"/>
	</g>
	<g>
		<g>
			<path style="fill:#00B6EA;" d="M27.827,284.963c0,38.162,30.935,69.098,69.096,69.098c38.159,0,69.095-30.936,69.095-69.098
				c0-38.158-30.936-69.094-69.095-69.094C58.762,215.869,27.827,246.805,27.827,284.963z"/>
			<path style="fill:#CBE9FA;" d="M44.821,284.963c0,28.775,23.327,52.104,52.102,52.104c28.775,0,52.101-23.328,52.101-52.104
				c0-28.773-23.325-52.102-52.101-52.102C68.148,232.861,44.821,256.19,44.821,284.963z"/>
			<path style="fill:#00B6EA;" d="M60.604,284.963c0,20.061,16.26,36.32,36.318,36.32c20.058,0,36.318-16.26,36.318-36.32
				c0-20.057-16.261-36.318-36.318-36.318C76.864,248.645,60.604,264.906,60.604,284.963z"/>
			<path style="fill:#CBE9FA;" d="M76.859,284.963c0,11.082,8.982,20.065,20.063,20.065c11.08,0,20.063-8.983,20.063-20.065
				c0-11.08-8.982-20.063-20.063-20.063C85.841,264.9,76.859,273.883,76.859,284.963z"/>
		</g>
		<g>
			<g>
				
					<line style="fill:none;stroke:#254370;stroke-width:2;stroke-miterlimit:10;" x1="96.922" y1="284.963" x2="38.172" y2="215.869"/>
				<polyline style="fill:none;stroke:#254370;stroke-width:2;stroke-miterlimit:10;" points="96.922,277.205 96.922,284.963 
					89.716,283.672 				"/>
			</g>
			<polygon style="fill:#5859A7;" points="55.03,234.016 39.027,215.17 49.003,211.568 65.908,231.252 			"/>
			<polygon style="fill:#5859A7;" points="53.395,235.391 37.358,216.572 32.204,225.844 48.925,245.684 			"/>
		</g>
	</g>
	<g>
		<line style="fill:none;stroke:#00B6EA;stroke-width:3;stroke-miterlimit:10;" x1="61.33" y1="185.519" x2="92.389" y2="185.519"/>
		<g>
			<path style="fill:none;stroke:#00B6EA;stroke-width:3;stroke-miterlimit:10;" d="M457.509,334.547c3.689,0,7.378,0,11.066,0"/>
			<path style="fill:none;stroke:#00B6EA;stroke-width:3;stroke-miterlimit:10;" d="M437.516,334.547c4.598,0,9.196,0,13.795,0"/>
		</g>
		<g>
			<path style="fill:none;stroke:#00B6EA;stroke-width:3;stroke-miterlimit:10;" d="M321.878,334.547c5.234,0,10.469,0,15.703,0"/>
			<path style="fill:none;stroke:#00B6EA;stroke-width:3;stroke-miterlimit:10;" d="M290.69,334.547c7.64,0,15.28,0,22.921,0"/>
		</g>
		<g>
			<path style="fill:none;stroke:#00B6EA;stroke-width:3;stroke-miterlimit:10;" d="M291.052,63.638c9.025,0,18.052,0,27.078,0"/>
			<path style="fill:none;stroke:#00B6EA;stroke-width:3;stroke-miterlimit:10;" d="M269.415,63.638c4.427,0,8.854,0,13.281,0"/>
		</g>
		<g>
			<path style="fill:none;stroke:#00B6EA;stroke-width:3;stroke-miterlimit:10;" d="M166.466,63.638c3.784,0,14.475,0,18.26,0"/>
			<path style="fill:none;stroke:#00B6EA;stroke-width:3;stroke-miterlimit:10;" d="M141.427,63.638c5.534,0,11.069,0,16.604,0"/>
			<path style="fill:none;stroke:#00B6EA;stroke-width:3;stroke-miterlimit:10;" d="M86.996,63.638c16.092,0,32.184,0,48.274,0"/>
		</g>
		<g>
			<path style="fill:none;stroke:#00B6EA;stroke-width:3;stroke-miterlimit:10;" d="M449.44,166.698c1.494,0,5.715,0,7.21,0"/>
			<path style="fill:none;stroke:#00B6EA;stroke-width:3;stroke-miterlimit:10;" d="M439.554,166.698c2.186,0,4.371,0,6.556,0"/>
			<path style="fill:none;stroke:#00B6EA;stroke-width:3;stroke-miterlimit:10;" d="M418.061,166.698c6.354,0,12.708,0,19.061,0"/>
		</g>
		<path style="fill:none;stroke:#00B6EA;stroke-width:3;stroke-miterlimit:10;" d="M393.005,107.947
			c0,3.147-2.553,5.698-5.699,5.698c-3.146,0-5.697-2.551-5.697-5.698c0-3.146,2.551-5.698,5.697-5.698
			C390.452,102.248,393.005,104.8,393.005,107.947z"/>
		<path style="fill:none;stroke:#00B6EA;stroke-width:3;stroke-miterlimit:10;" d="M50.52,125.982c0,3.146-2.553,5.698-5.699,5.698
			s-5.697-2.552-5.697-5.698c0-3.147,2.551-5.698,5.697-5.698S50.52,122.835,50.52,125.982z"/>
		<path style="fill:none;stroke:#00B6EA;stroke-width:3;stroke-miterlimit:10;" d="M21.022,248.646c0,3.146-2.552,5.697-5.698,5.697
			s-5.698-2.551-5.698-5.697s2.552-5.699,5.698-5.699S21.022,245.5,21.022,248.646z"/>
		<path style="fill:none;stroke:#00B6EA;stroke-width:3;stroke-miterlimit:10;" d="M462.349,248.645
			c0,3.148-2.552,5.699-5.698,5.699c-3.146,0-5.698-2.551-5.698-5.699c0-3.146,2.552-5.697,5.698-5.697
			C459.797,242.947,462.349,245.498,462.349,248.645z"/>
		<path style="fill:none;stroke:#00B6EA;stroke-width:3;stroke-miterlimit:10;" d="M190.424,334.547
			c0,3.146-2.552,5.697-5.698,5.697s-5.698-2.551-5.698-5.697c0-3.147,2.552-5.699,5.698-5.699S190.424,331.4,190.424,334.547z"/>
	</g>
</g>
</svg>
