<?xml version="1.0" encoding="utf-8"?>
<!-- Generator: Adobe Illustrator 27.5.0, SVG Export Plug-In . SVG Version: 6.00 Build 0)  -->
<svg version="1.1" id="Capa_1" xmlns="http://www.w3.org/2000/svg" xmlns:xlink="http://www.w3.org/1999/xlink" x="0px" y="0px"
	 viewBox="0 0 425.197 425.197" style="enable-background:new 0 0 425.197 425.197;" xml:space="preserve">
<rect y="0.001" style="fill:#00AFBB;" width="425.197" height="425.197"/>
<path style="fill:#00A1B6;" d="M392.683,96.455c0,22.455-18.203,40.658-40.658,40.658c-22.454,0-40.657-18.203-40.657-40.658
	c0-22.455,18.203-40.658,40.657-40.658C374.479,55.797,392.683,74,392.683,96.455z"/>
<path style="fill:#00A1B6;" d="M304.118,59.056c0,22.455-18.203,40.658-40.658,40.658c-22.454,0-40.657-18.203-40.657-40.658
	c0-22.455,18.203-40.658,40.657-40.658C285.915,18.399,304.118,36.602,304.118,59.056z"/>
<path style="fill:#00A1B6;" d="M192.333,89.509c0,22.455-18.203,40.658-40.658,40.658c-22.454,0-40.657-18.203-40.657-40.658
	c0-22.455,18.203-40.658,40.657-40.658C174.13,48.852,192.333,67.055,192.333,89.509z"/>
<path style="fill:#00A1B6;" d="M106.977,54.917c0,22.455-18.203,40.658-40.658,40.658c-22.454,0-40.657-18.203-40.657-40.658
	c0-22.455,18.203-40.658,40.657-40.658C88.773,14.26,106.977,32.463,106.977,54.917z"/>
<path style="fill:#008FA0;" d="M37.373,390.677c0,5.155,82.271,9.334,183.76,9.334c101.486,0,183.759-4.179,183.759-9.334
	c0-5.154-82.272-9.333-183.759-9.333C119.645,381.344,37.373,385.522,37.373,390.677z"/>
<g>
	<g>
		<path style="fill:#323A3E;" d="M398.208,378.887c0,6.516-6.397,11.79-14.282,11.79H74.835c-7.89,0-14.284-5.274-14.284-11.79l0,0
			c0-6.509,6.394-11.786,14.284-11.786h309.091C391.811,367.101,398.208,372.378,398.208,378.887L398.208,378.887z"/>
		<path style="fill:#DADADA;" d="M60.721,377.504c-0.066,0.459-0.17,0.909-0.17,1.383c0,6.516,6.394,11.79,14.284,11.79h309.091
			c7.885,0,14.282-5.274,14.282-11.79c0-0.474-0.104-0.924-0.171-1.383H60.721z"/>
		<rect x="60.551" y="367.101" style="fill:#BEBEBE;" width="337.657" height="11.786"/>
	</g>
	<g>
		<path style="fill:#DADADA;" d="M363.146,179.978c8.712,0,10.85,0.94,10.85,8.171v171.645c0,7.23-2.138,8.17-10.85,8.17H95.61
			c-8.714,0-10.846-0.939-10.846-8.17V188.149c0-7.232,2.132-8.171,10.846-8.171H363.146z"/>
		<path style="fill:#E9E9E9;" d="M84.765,188.149v171.645c0,4.249,0.75,6.317,3.127,7.307c-0.472-1.171-0.663-2.732-0.663-4.839
			V190.615c0-7.23,2.133-8.169,10.847-8.169h267.534c3.592,0,6.053,0.169,7.722,0.863c-1.151-2.848-4.013-3.331-10.186-3.331H95.61
			C86.896,179.978,84.765,180.917,84.765,188.149z"/>
		<path style="fill:#B2B2B2;" d="M246.687,187.703c0,1.699-0.889,3.075-1.982,3.075H226.27c-1.093,0-1.981-1.376-1.981-3.075l0,0
			c0-1.694,0.889-3.068,1.981-3.068h18.435C245.798,184.635,246.687,186.009,246.687,187.703L246.687,187.703z"/>
		<path style="fill:#B2B2B2;" d="M254.678,187.706c0,1.697-1.377,3.072-3.072,3.072c-1.696,0-3.071-1.375-3.071-3.072
			c0-1.696,1.375-3.071,3.071-3.071C253.301,184.635,254.678,186.01,254.678,187.706z"/>
		<rect x="93.876" y="194.086" style="fill:#A1D2D9;" width="268.67" height="163.716"/>
		<polygon style="fill:#DADADA;" points="100.319,198.904 362.546,198.904 362.546,194.086 93.876,194.086 93.876,357.802 
			100.319,357.802 		"/>
	</g>
</g>
<g>
	<rect x="59.257" y="151.982" style="fill:#FFFFFF;" width="279.778" height="189.04"/>
	<rect x="59.257" y="166.162" style="fill:#017CA8;" width="279.778" height="16.067"/>
	<rect x="59.257" y="182.23" style="fill:#61B9D9;" width="279.778" height="23.629"/>
	<rect x="74.38" y="189.789" style="fill:#FFFFFF;" width="124.765" height="9.452"/>
	<rect x="208.599" y="189.789" style="fill:#454F56;" width="34.026" height="9.452"/>
	<rect x="80.997" y="218.855" style="fill:#DADADA;" width="55.767" height="39.698"/>
	<g>
		
			<line style="fill:none;stroke:#E94E1B;stroke-width:3.7808;stroke-miterlimit:10;" x1="148.105" y1="223.108" x2="208.599" y2="223.108"/>
		
			<line style="fill:none;stroke:#C6C6C6;stroke-width:3.7808;stroke-miterlimit:10;" x1="148.105" y1="237.285" x2="315.405" y2="237.285"/>
		
			<line style="fill:none;stroke:#C6C6C6;stroke-width:3.7808;stroke-miterlimit:10;" x1="148.105" y1="245.793" x2="315.405" y2="245.793"/>
		
			<line style="fill:none;stroke:#C6C6C6;stroke-width:3.7808;stroke-miterlimit:10;" x1="148.105" y1="254.297" x2="225.611" y2="254.297"/>
	</g>
	<rect x="80.997" y="268.636" style="fill:#DADADA;" width="55.767" height="39.698"/>
	<g>
		
			<line style="fill:none;stroke:#E94E1B;stroke-width:3.7808;stroke-miterlimit:10;" x1="148.105" y1="272.887" x2="208.599" y2="272.887"/>
		
			<line style="fill:none;stroke:#C6C6C6;stroke-width:3.7808;stroke-miterlimit:10;" x1="148.105" y1="287.067" x2="315.405" y2="287.067"/>
		
			<line style="fill:none;stroke:#C6C6C6;stroke-width:3.7808;stroke-miterlimit:10;" x1="148.105" y1="295.571" x2="315.405" y2="295.571"/>
		
			<line style="fill:none;stroke:#C6C6C6;stroke-width:3.7808;stroke-miterlimit:10;" x1="148.105" y1="304.079" x2="225.611" y2="304.079"/>
	</g>
	<path style="fill:#D6D6D6;" d="M306.348,158.796c0,2.93-2.377,5.306-5.308,5.306c-2.933,0-5.31-2.376-5.31-5.306
		c0-2.933,2.377-5.309,5.31-5.309C303.971,153.487,306.348,155.863,306.348,158.796z"/>
	<path style="fill:#D6D6D6;" d="M320.715,158.796c0,2.93-2.377,5.306-5.309,5.306c-2.934,0-5.309-2.376-5.309-5.306
		c0-2.933,2.375-5.309,5.309-5.309C318.338,153.487,320.715,155.863,320.715,158.796z"/>
	<path style="fill:#D6D6D6;" d="M292.171,158.796c0,2.93-2.378,5.306-5.309,5.306c-2.933,0-5.31-2.376-5.31-5.306
		c0-2.933,2.377-5.309,5.31-5.309C289.793,153.487,292.171,155.863,292.171,158.796z"/>
</g>
<g>
	<g>
		<path style="fill:#FFDE00;" d="M236.038,204.137c7.051-25.269-7.718-51.471-32.986-58.522
			c-25.267-7.051-51.471,7.716-58.521,32.986c-8.987,32.2,21.383,44.17,16.998,59.882l-2.436,8.732l31.97,8.92l2.748-9.846
			C198.206,230.535,227.051,236.338,236.038,204.137z"/>
		<path style="fill:#FDC400;" d="M173.654,228.879c-5.888-13.97-8.583-29.835-5.342-44.811
			c3.719-17.215,13.478-31.473,27.192-39.912c-22.744-2.541-44.625,11.69-50.975,34.445c-8.987,32.2,21.383,44.17,16.998,59.882
			l-2.436,8.732l31.97,8.92l0.408-1.461C181.921,250.59,177.401,237.778,173.654,228.879z"/>
		
			<line style="fill:none;stroke:#F39200;stroke-width:2.8862;stroke-linecap:round;stroke-linejoin:round;stroke-miterlimit:10;" x1="205.479" y1="136.927" x2="209.453" y2="122.679"/>
		
			<line style="fill:none;stroke:#F39200;stroke-width:2.8862;stroke-linecap:round;stroke-linejoin:round;stroke-miterlimit:10;" x1="245.564" y1="205.795" x2="258.77" y2="209.482"/>
		
			<line style="fill:none;stroke:#F39200;stroke-width:2.8862;stroke-linecap:round;stroke-linejoin:round;stroke-miterlimit:10;" x1="126.024" y1="172.435" x2="139.23" y2="176.119"/>
		
			<line style="fill:none;stroke:#F39200;stroke-width:2.8862;stroke-linecap:round;stroke-linejoin:round;stroke-miterlimit:10;" x1="233.031" y1="158.099" x2="247.152" y2="148.557"/>
		
			<line style="fill:none;stroke:#F39200;stroke-width:2.8862;stroke-linecap:round;stroke-linejoin:round;stroke-miterlimit:10;" x1="161.825" y1="143.472" x2="154.518" y2="132.069"/>
		
			<line style="fill:none;stroke:#F39200;stroke-width:2.8862;stroke-linecap:round;stroke-linejoin:round;stroke-miterlimit:10;" x1="220.754" y1="232.958" x2="226.879" y2="245.904"/>
		
			<line style="fill:none;stroke:#F39200;stroke-width:2.8862;stroke-linecap:round;stroke-linejoin:round;stroke-miterlimit:10;" x1="169.987" y1="245.757" x2="177.801" y2="186.884"/>
		
			<line style="fill:none;stroke:#F39200;stroke-width:2.8862;stroke-linecap:round;stroke-linejoin:round;stroke-miterlimit:10;" x1="183.191" y1="249.442" x2="206.991" y2="195.031"/>
		
			<line style="fill:none;stroke:#F39200;stroke-width:2.8862;stroke-linecap:round;stroke-linejoin:round;stroke-miterlimit:10;" x1="177.077" y1="192.348" x2="204.395" y2="199.972"/>
		<path style="fill:#C6C6C6;" d="M184.833,273.313c-1.741,6.238-9.711,9.463-17.805,7.205c-8.093-2.26-13.243-9.147-11.5-15.385
			L184.833,273.313z"/>
		
			<rect x="166.326" y="244.461" transform="matrix(0.2687 -0.9632 0.9632 0.2687 -125.341 357.0159)" style="fill:#C6C6C6;" width="12.266" height="33.192"/>
		
			<rect x="166.843" y="248.204" transform="matrix(0.2688 -0.9632 0.9632 0.2688 -132.2404 359.7346)" style="fill:#B2B2B2;" width="7.935" height="37.521"/>
		
			<rect x="171.206" y="232.566" transform="matrix(0.2688 -0.9632 0.9632 0.2688 -113.9897 352.4956)" style="fill:#B2B2B2;" width="7.938" height="37.522"/>
		
			<rect x="174.403" y="233.092" transform="matrix(0.2688 -0.9632 0.9632 0.2688 -112.2964 352.5525)" style="fill:#CECECE;" width="3.294" height="34.29"/>
		
			<rect x="170.135" y="248.381" transform="matrix(0.2688 -0.9632 0.9632 0.2688 -130.144 359.6228)" style="fill:#CECECE;" width="3.293" height="34.29"/>
		<path style="fill:#FFEE00;" d="M229.255,172.952c5.927,13.324,4.977,26.687-2.125,29.846c-7.102,3.157-17.66-5.085-23.588-18.413
			c-5.925-13.324-4.972-26.685,2.128-29.842C212.77,151.384,223.328,159.628,229.255,172.952z"/>
	</g>
	<g>
		<path style="fill:#F8B894;" d="M11.835,425.197h33.587c-0.048-0.207-0.095-0.404-0.143-0.613
			c-2.129-9.377-4.364-20.387-5.83-31.987c-0.727-5.788-1.236-11.728-1.301-17.475c-0.021-2.857,0.062-5.681,0.332-8.276
			c0.129-1.302,0.301-2.553,0.522-3.689c0.101-0.587,0.229-1.113,0.352-1.634l0.097-0.376l0.047-0.189l0.023-0.095
			c0.113-0.304-0.143,0.364-0.105,0.266l0.026-0.073l0.419-1.175l0.833-2.316l0.712-1.74l0.35-0.879l0.453-0.981l0.9-1.966
			c1.293-2.62,2.674-5.244,4.206-7.828c3.037-5.175,6.445-10.208,9.954-14.991c7.037-9.574,14.441-18.161,20.991-25.339
			c6.564-7.179,12.312-12.958,16.372-16.933c2.033-1.985,3.646-3.52,4.74-4.55c1.07-0.998,1.641-1.53,1.641-1.53l-11.982-14.183
			c0,0-0.688,0.554-1.978,1.594c-1.253,1.02-3.066,2.512-5.343,4.437c-4.55,3.854-10.955,9.431-18.388,16.47
			c-7.425,7.052-15.896,15.533-24.383,25.485c-4.237,4.985-8.476,10.342-12.505,16.191c-2.021,2.914-3.957,5.998-5.828,9.197
			l-1.358,2.464l-0.678,1.236l-0.687,1.386l-1.357,2.794l-1.023,2.313l-0.503,1.142l-0.731,1.888
			c-0.386,1.06-0.755,2.122-1.054,3.147c-0.635,2.074-1.118,4.081-1.521,6.047c-0.816,3.941-1.288,7.704-1.631,11.383
			c-0.644,7.335-0.702,14.296-0.531,20.941C9.845,405.884,10.781,416.122,11.835,425.197z"/>
		<g>
			<path style="fill:#F8B894;" d="M85.874,269.532l4.816-21.898l-0.859-21.754c0,0,29.932,1.219,35.776,7.726
				c-0.448,8.108,2.005,15.557,6.449,15.835c4.446,0.279,7.735-3.864,5.703-13.357c-1.52-7.096,7.886-4.906,9.25,1.159
				c3.15,14.026-7.828,22.361-15.184,26.44c-6.79,3.76-33.427,18.689-33.427,18.689L85.874,269.532z"/>
			<path style="fill:#F8B894;" d="M90.882,229.055c-3.442-6.629,2.416-24.383,5.487-28.771c1.992-2.849,5.927-2.972,4.809,0.052
				c-2.15,5.827-3.98,19.041-1.903,34.965C100.855,237.877,93.106,233.649,90.882,229.055z"/>
			<path style="fill:#F8B894;" d="M97.336,230.185c-0.285-16.864,9.486-34.709,13.501-37.535c5.289-3.723,8.213-0.356,6.099,2.287
				c-3.338,4.181-10.023,20.699-9.456,36.61C108.867,236.274,98.408,235.481,97.336,230.185z"/>
			<path style="fill:#F8B894;" d="M108.769,231.841c-2.017-16.746,5.493-32.806,17-36.682c6.129-2.068,8.578,4.166,5.8,6.099
				c-8.336,5.794-16.064,15.958-13.865,31.727C119.567,237.545,110.378,236.999,108.769,231.841z"/>
			<path style="fill:#F8B894;" d="M117.127,239.77c-0.93-7.718-0.283-16.972,3.964-22.674c4.068-5.468,17.998-3.139,20.735,7.339
				c1.635,6.258-2.847,9.961-4.675,6.503c-1.495-2.82-9.37-7.635-10.774-2.711c-0.988,3.467-1.218,7.857-0.316,12.687
				C127.926,245.472,118.736,244.928,117.127,239.77z"/>
		</g>
	</g>
</g>
<g>
	
		<rect x="50.806" y="74.462" style="fill:none;stroke:#FFFFFF;stroke-width:1.1983;stroke-linecap:round;stroke-miterlimit:10;" width="29.374" height="4.746"/>
	
		<rect x="50.806" y="26.527" style="fill:none;stroke:#FFFFFF;stroke-width:1.1983;stroke-linecap:round;stroke-miterlimit:10;" width="29.374" height="4.745"/>
	<path style="fill:none;stroke:#FFFFFF;stroke-width:1.1983;stroke-linecap:round;stroke-miterlimit:10;" d="M68.943,53.754v-1.771
		c4.274-2.06,11-6.021,11-10.573c0-6.67-3.02-10.137-3.02-10.137H53.469c0,0-2.428,3.613-2.428,10.137
		c0,4.551,6.727,8.513,11.001,10.573v1.772c-4.274,2.058-11.001,6.02-11.001,10.572c0,6.67,3.021,10.136,3.021,10.136h23.455
		c0,0,2.426-3.612,2.426-10.136C79.943,59.774,73.218,55.812,68.943,53.754z"/>
	<path style="fill:none;stroke:#FFFFFF;stroke-width:1.1983;stroke-linecap:round;stroke-miterlimit:10;" d="M77.191,42.568
		c0,0.76-5.222,7.846-11.699,7.846c-6.477,0-11.757-7.086-11.757-7.846c0-0.758,5.251-1.375,11.727-1.375
		C71.941,41.193,77.191,41.81,77.191,42.568z"/>
	<path style="fill:none;stroke:#FFFFFF;stroke-width:1.1983;stroke-linecap:round;stroke-miterlimit:10;" d="M54.545,72.09
		c0-0.759,4.861-7.846,10.892-7.846c6.03,0,10.944,7.087,10.944,7.846H54.545z"/>
	
		<line style="fill:none;stroke:#FFFFFF;stroke-width:1.1983;stroke-linecap:round;stroke-miterlimit:10;stroke-dasharray:2.5882;" x1="65.492" y1="50.415" x2="65.492" y2="64.244"/>
</g>
<g>
	<path style="fill:none;stroke:#FFFFFF;stroke-width:1.1574;stroke-linecap:round;stroke-linejoin:round;stroke-miterlimit:10;" d="
		M150.903,64.467c-10.52,0-19.049,8.528-19.049,19.049c0,13.406,13.02,14.755,13.02,21.297v1.8h13.312v-2.265
		c0-6.558,11.767-7.426,11.767-20.832C169.953,72.995,161.424,64.467,150.903,64.467z"/>
	<path style="fill:none;stroke:#FFFFFF;stroke-width:1.1574;stroke-miterlimit:10;" d="M145.534,116.601
		c0.519,2.191,3.003,3.855,5.996,3.855c2.994,0,5.479-1.664,5.997-3.855H145.534z"/>
	
		<rect x="144.875" y="109.895" style="fill:none;stroke:#FFFFFF;stroke-width:1.1574;stroke-linecap:round;stroke-linejoin:round;stroke-miterlimit:10;" width="13.312" height="3.239"/>
	
		<rect x="144.008" y="113.222" style="fill:none;stroke:#FFFFFF;stroke-width:1.1574;stroke-miterlimit:10;" width="15.047" height="3.183"/>
	
		<rect x="144.008" y="106.712" style="fill:none;stroke:#FFFFFF;stroke-width:1.1574;stroke-linecap:round;stroke-linejoin:round;stroke-miterlimit:10;" width="15.047" height="3.183"/>
	
		<line style="fill:none;stroke:#FFFFFF;stroke-width:1.1574;stroke-linecap:round;stroke-linejoin:round;stroke-miterlimit:10;" x1="150.903" y1="60.85" x2="150.903" y2="54.917"/>
	
		<line style="fill:none;stroke:#FFFFFF;stroke-width:1.1574;stroke-linecap:round;stroke-linejoin:round;stroke-miterlimit:10;" x1="173.813" y1="83.129" x2="179.309" y2="83.129"/>
	
		<line style="fill:none;stroke:#FFFFFF;stroke-width:1.1574;stroke-linecap:round;stroke-linejoin:round;stroke-miterlimit:10;" x1="124.043" y1="83.129" x2="129.541" y2="83.129"/>
	
		<line style="fill:none;stroke:#FFFFFF;stroke-width:1.1574;stroke-linecap:round;stroke-linejoin:round;stroke-miterlimit:10;" x1="163.828" y1="66.058" x2="168.254" y2="60.85"/>
	
		<line style="fill:none;stroke:#FFFFFF;stroke-width:1.1574;stroke-linecap:round;stroke-linejoin:round;stroke-miterlimit:10;" x1="134.748" y1="96.295" x2="129.541" y2="100.635"/>
	
		<line style="fill:none;stroke:#FFFFFF;stroke-width:1.1574;stroke-linecap:round;stroke-linejoin:round;stroke-miterlimit:10;" x1="134.748" y1="68.084" x2="130.697" y2="64.467"/>
	
		<line style="fill:none;stroke:#FFFFFF;stroke-width:1.1574;stroke-linecap:round;stroke-linejoin:round;stroke-miterlimit:10;" x1="167.156" y1="96.295" x2="170.917" y2="100.635"/>
	
		<line style="fill:none;stroke:#FFFFFF;stroke-width:1.1574;stroke-linecap:round;stroke-linejoin:round;stroke-miterlimit:10;" x1="148.928" y1="106.712" x2="145.6" y2="83.129"/>
	
		<line style="fill:none;stroke:#FFFFFF;stroke-width:1.1574;stroke-linecap:round;stroke-linejoin:round;stroke-miterlimit:10;" x1="154.426" y1="106.712" x2="157.752" y2="83.129"/>
	
		<line style="fill:none;stroke:#FFFFFF;stroke-width:1.1574;stroke-linecap:round;stroke-linejoin:round;stroke-miterlimit:10;" x1="145.908" y1="85.317" x2="157.283" y2="85.317"/>
</g>
<g>
	<path style="fill:none;stroke:#FFFFFF;stroke-width:1.078;stroke-linecap:round;stroke-linejoin:round;stroke-miterlimit:10;" d="
		M374.812,82.305c2.508,4.126,3.95,8.97,3.95,14.15c0,15.074-12.22,27.294-27.294,27.294c-15.074,0-27.294-12.22-27.294-27.294
		c0-15.075,12.22-27.293,27.294-27.293c6.328,0,12.152,2.153,16.781,5.766"/>
	<path style="fill:none;stroke:#FFFFFF;stroke-width:1.078;stroke-linecap:round;stroke-linejoin:round;stroke-miterlimit:10;" d="
		M370.16,96.455c0,10.323-8.368,18.692-18.692,18.692c-10.324,0-18.693-8.369-18.693-18.692c0-10.324,8.369-18.692,18.693-18.692
		C361.792,77.762,370.16,86.13,370.16,96.455z"/>
	<path style="fill:none;stroke:#FFFFFF;stroke-width:1.078;stroke-linecap:round;stroke-linejoin:round;stroke-miterlimit:10;" d="
		M360.234,96.455c0,4.843-3.925,8.768-8.767,8.768s-8.768-3.925-8.768-8.768c0-4.842,3.926-8.768,8.768-8.768
		S360.234,91.613,360.234,96.455z"/>
	
		<line style="fill:none;stroke:#FFFFFF;stroke-width:1.078;stroke-linecap:round;stroke-linejoin:round;stroke-miterlimit:10;" x1="351.468" y1="96.455" x2="379.657" y2="72.05"/>
	
		<polygon style="fill:none;stroke:#FFFFFF;stroke-width:1.078;stroke-linecap:round;stroke-linejoin:round;stroke-miterlimit:10;" points="
		373.537,83.227 368.697,81.763 377.941,73.571 383.959,75.69 	"/>
	
		<polygon style="fill:none;stroke:#FFFFFF;stroke-width:1.078;stroke-linecap:round;stroke-linejoin:round;stroke-miterlimit:10;" points="
		367.22,75.947 368.697,81.763 377.941,73.571 376.329,66.922 	"/>
</g>
<g>
	<g>
		
			<rect x="240.974" y="42.378" style="fill:none;stroke:#FFFFFF;stroke-width:0.6583;stroke-linecap:round;stroke-miterlimit:10;" width="43.246" height="33.372"/>
		
			<line style="fill:none;stroke:#FFFFFF;stroke-width:0.6583;stroke-linecap:round;stroke-miterlimit:10;" x1="240.974" y1="48.003" x2="284.22" y2="48.003"/>
		<path style="fill:none;stroke:#FFFFFF;stroke-width:0.6583;stroke-linecap:round;stroke-miterlimit:10;" d="M271.651,45.143
			c0,0.742-0.602,1.343-1.342,1.343c-0.742,0-1.343-0.601-1.343-1.343c0-0.741,0.601-1.342,1.343-1.342
			C271.05,43.801,271.651,44.402,271.651,45.143z"/>
		<path style="fill:none;stroke:#FFFFFF;stroke-width:0.6583;stroke-linecap:round;stroke-miterlimit:10;" d="M282.007,45.143
			c0,0.742-0.602,1.343-1.342,1.343c-0.743,0-1.344-0.601-1.344-1.343c0-0.741,0.601-1.342,1.344-1.342
			C281.405,43.801,282.007,44.402,282.007,45.143z"/>
		<path style="fill:none;stroke:#FFFFFF;stroke-width:0.6583;stroke-linecap:round;stroke-miterlimit:10;" d="M277.023,45.143
			c0,0.742-0.601,1.343-1.343,1.343c-0.74,0-1.342-0.601-1.342-1.343c0-0.741,0.602-1.342,1.342-1.342
			C276.423,43.801,277.023,44.402,277.023,45.143z"/>
		<path style="fill:none;stroke:#FFFFFF;stroke-width:0.6583;stroke-linecap:round;stroke-miterlimit:10;" d="M266.597,45.119
			c0,0.755-0.725,1.367-1.616,1.367H244.59c-0.892,0-1.615-0.611-1.615-1.367l0,0c0-0.753,0.724-1.365,1.615-1.365h20.391
			C265.872,43.753,266.597,44.366,266.597,45.119L266.597,45.119z"/>
		<polyline style="fill:none;stroke:#FFFFFF;stroke-width:0.6583;stroke-linecap:round;stroke-miterlimit:10;" points="
			253.848,53.752 247.849,53.752 247.849,70.376 253.848,70.376 		"/>
		<polyline style="fill:none;stroke:#FFFFFF;stroke-width:0.6583;stroke-linecap:round;stroke-miterlimit:10;" points="
			272.721,70.376 277.845,70.376 277.845,53.752 272.721,53.752 		"/>
		
			<line style="fill:none;stroke:#FFFFFF;stroke-width:0.6583;stroke-miterlimit:10;" x1="250.848" y1="56.502" x2="274.339" y2="56.502"/>
		
			<line style="fill:none;stroke:#FFFFFF;stroke-width:0.6583;stroke-miterlimit:10;" x1="250.848" y1="60.064" x2="262.607" y2="60.064"/>
		
			<line style="fill:none;stroke:#FFFFFF;stroke-width:0.6583;stroke-miterlimit:10;" x1="266.597" y1="60.064" x2="274.339" y2="60.064"/>
		
			<line style="fill:none;stroke:#FFFFFF;stroke-width:0.6583;stroke-miterlimit:10;" x1="250.848" y1="63.294" x2="262.607" y2="63.294"/>
		
			<line style="fill:none;stroke:#FFFFFF;stroke-width:0.6583;stroke-miterlimit:10;" x1="266.597" y1="63.294" x2="274.339" y2="63.294"/>
		
			<line style="fill:none;stroke:#FFFFFF;stroke-width:0.6583;stroke-miterlimit:10;" x1="250.848" y1="66.522" x2="262.607" y2="66.522"/>
		
			<line style="fill:none;stroke:#FFFFFF;stroke-width:0.6583;stroke-miterlimit:10;" x1="266.597" y1="66.522" x2="274.339" y2="66.522"/>
		<g>
			<path style="fill:#FFFFFF;" d="M271.077,55.493h-14.566c-0.642,0.563-1.116,1.237-1.479,2.019h17.308
				C272.007,56.78,271.618,56.074,271.077,55.493z"/>
		</g>
		<g>
			<path style="fill:#FFFFFF;" d="M254.17,59.055c-0.127,0.599-0.226,1.192-0.231,1.815c-0.001,0.078-0.021,0.142-0.043,0.204
				h10.025v-2.019H254.17z"/>
		</g>
		<g>
			<path style="fill:#FFFFFF;" d="M272.888,59.055h-7.264v2.019h7.648C273.19,60.396,273.069,59.723,272.888,59.055z"/>
		</g>
		<g>
			<path style="fill:#FFFFFF;" d="M253.86,62.284c0.105,0.239,0.052,0.539-0.154,0.707v0.038c0.004,0.002,0.006,0.006,0.008,0.008
				c0.126,0.107,0.21,0.265,0.225,0.444c0.014,0.146,0.061,0.289,0.072,0.436c0.008,0.084-0.015,0.164-0.053,0.235
				c0.018,0.049,0.022,0.1,0.026,0.15h9.936v-2.018H253.86z"/>
		</g>
		<g>
			<path style="fill:#FFFFFF;" d="M273.386,62.284h-7.762v2.018h7.819C273.44,63.624,273.427,62.951,273.386,62.284z"/>
		</g>
		<g>
			<path style="fill:#FFFFFF;" d="M254.188,65.513c0.354,0.677,0.646,1.382,1.068,2.019h8.665v-2.019H254.188z"/>
		</g>
		<g>
			<path style="fill:#FFFFFF;" d="M273.09,65.513h-7.466v2.019h6.361C272.552,67.062,272.849,66.273,273.09,65.513z"/>
		</g>
	</g>
	<g>
		<path style="fill:none;stroke:#FFFFFF;stroke-width:0.6948;stroke-miterlimit:10;" d="M272.105,56.98
			c2.823,4.678,1.32,10.759-3.356,13.582c-4.678,2.824-10.76,1.321-13.584-3.357c-2.823-4.678-1.319-10.758,3.357-13.581
			C263.2,50.8,269.28,52.302,272.105,56.98z"/>
		
			<line style="fill:none;stroke:#FFFFFF;stroke-width:0.6948;stroke-miterlimit:10;" x1="268.749" y1="70.563" x2="270.339" y2="73.197"/>
		
			<line style="fill:none;stroke:#FFFFFF;stroke-width:2.0844;stroke-linecap:round;stroke-miterlimit:10;" x1="270.885" y1="74.102" x2="277.747" y2="85.469"/>
	</g>
</g>
</svg>
